<mxfile host="drawio-plugin" agent="Mozilla/5.0 (Windows NT 10.0; Win64; x64) AppleWebKit/537.36 (KHTML, like Gecko) Chrome/122.0.0.0 Safari/537.36" modified="2025-07-05T20:31:54.264Z" version="22.1.22" etag="xrniyG7Vw1_tjDKXxZ33" type="embed">
  <diagram name="UseCaseGameMonitoring_Extended" id="U67slQNZNAwhTFtYolFh">
    <mxGraphModel dx="485" dy="362" grid="1" gridSize="10" guides="1" tooltips="1" connect="1" arrows="1" fold="1" page="1" pageScale="1" pageWidth="827" pageHeight="1169" math="0" shadow="0">
      <root>
        <mxCell id="0" />
        <mxCell id="1" parent="0" />
        <mxCell id="808y03WBdtZiZQ33SgHt-79" value="User" style="swimlane;fontStyle=1;align=center;verticalAlign=top;childLayout=stackLayout;horizontal=1;startSize=26;horizontalStack=0;resizeParent=1;resizeParentMax=0;resizeLast=0;collapsible=1;marginBottom=0;whiteSpace=wrap;html=1;" parent="1" vertex="1">
          <mxGeometry x="80" y="380" width="160" height="130" as="geometry" />
        </mxCell>
        <mxCell id="808y03WBdtZiZQ33SgHt-80" value="+ id:Long&lt;div&gt;+ username: String&lt;/div&gt;&lt;div&gt;+ email: String&lt;/div&gt;&lt;div&gt;+ password: String (hash)&lt;/div&gt;&lt;div&gt;+ role: Enum&lt;/div&gt;&lt;div&gt;+ createdAt: LocalDateTime&lt;/div&gt;&lt;div&gt;&lt;br&gt;&lt;/div&gt;" style="text;strokeColor=none;fillColor=none;align=left;verticalAlign=top;spacingLeft=4;spacingRight=4;overflow=hidden;rotatable=0;points=[[0,0.5],[1,0.5]];portConstraint=eastwest;whiteSpace=wrap;html=1;" parent="808y03WBdtZiZQ33SgHt-79" vertex="1">
          <mxGeometry y="26" width="160" height="104" as="geometry" />
        </mxCell>
        <mxCell id="808y03WBdtZiZQ33SgHt-86" value="Server" style="swimlane;fontStyle=1;align=center;verticalAlign=top;childLayout=stackLayout;horizontal=1;startSize=26;horizontalStack=0;resizeParent=1;resizeParentMax=0;resizeLast=0;collapsible=1;marginBottom=0;whiteSpace=wrap;html=1;" parent="1" vertex="1">
          <mxGeometry x="320" y="440" width="190" height="250" as="geometry" />
        </mxCell>
        <mxCell id="808y03WBdtZiZQ33SgHt-87" value="+ id: UUID&lt;br&gt;&lt;div&gt;+ name: name&lt;br&gt;+ ip: String&lt;br&gt;+ port: Integer&lt;/div&gt;&lt;div&gt;+ status: &lt;b&gt;enum(ONLINE, OFFLINE)&lt;/b&gt;&lt;/div&gt;&lt;div&gt;+ playerCount: short&lt;br&gt;+ maxPlayers: short&lt;br&gt;+ score: Integer (rating)&lt;br&gt;+ version: String&lt;br&gt;+ countryCode: String(ISO-code)&lt;/div&gt;&lt;div&gt;+ city: String&lt;br&gt;+ lastUpd: LocalDateTime&lt;br&gt;+ mapName: String&lt;/div&gt;" style="text;strokeColor=none;fillColor=none;align=left;verticalAlign=top;spacingLeft=4;spacingRight=4;overflow=hidden;rotatable=0;points=[[0,0.5],[1,0.5]];portConstraint=eastwest;whiteSpace=wrap;html=1;" parent="808y03WBdtZiZQ33SgHt-86" vertex="1">
          <mxGeometry y="26" width="190" height="224" as="geometry" />
        </mxCell>
        <mxCell id="808y03WBdtZiZQ33SgHt-88" value="ServerStatistic" style="swimlane;fontStyle=1;align=center;verticalAlign=top;childLayout=stackLayout;horizontal=1;startSize=26;horizontalStack=0;resizeParent=1;resizeParentMax=0;resizeLast=0;collapsible=1;marginBottom=0;whiteSpace=wrap;html=1;" parent="1" vertex="1">
          <mxGeometry x="50" y="550" width="200" height="130" as="geometry" />
        </mxCell>
        <mxCell id="808y03WBdtZiZQ33SgHt-89" value="+ id: UUID&lt;br&gt;&lt;div&gt;+ timestamp: LocalDateTime&lt;br&gt;+ playerCount: Integer&lt;br&gt;+ mapName: String&lt;/div&gt;" style="text;strokeColor=none;fillColor=none;align=left;verticalAlign=top;spacingLeft=4;spacingRight=4;overflow=hidden;rotatable=0;points=[[0,0.5],[1,0.5]];portConstraint=eastwest;whiteSpace=wrap;html=1;" parent="808y03WBdtZiZQ33SgHt-88" vertex="1">
          <mxGeometry y="26" width="200" height="104" as="geometry" />
        </mxCell>
        <mxCell id="808y03WBdtZiZQ33SgHt-90" value="GameMode" style="swimlane;fontStyle=1;align=center;verticalAlign=top;childLayout=stackLayout;horizontal=1;startSize=26;horizontalStack=0;resizeParent=1;resizeParentMax=0;resizeLast=0;collapsible=1;marginBottom=0;whiteSpace=wrap;html=1;" parent="1" vertex="1">
          <mxGeometry x="320" y="200" width="160" height="70" as="geometry" />
        </mxCell>
        <mxCell id="808y03WBdtZiZQ33SgHt-91" value="+ id: UUID&lt;br&gt;&lt;div&gt;+ name: String&amp;nbsp;&lt;/div&gt;" style="text;strokeColor=none;fillColor=none;align=left;verticalAlign=top;spacingLeft=4;spacingRight=4;overflow=hidden;rotatable=0;points=[[0,0.5],[1,0.5]];portConstraint=eastwest;whiteSpace=wrap;html=1;" parent="808y03WBdtZiZQ33SgHt-90" vertex="1">
          <mxGeometry y="26" width="160" height="44" as="geometry" />
        </mxCell>
        <mxCell id="808y03WBdtZiZQ33SgHt-92" value="Review" style="swimlane;fontStyle=1;align=center;verticalAlign=top;childLayout=stackLayout;horizontal=1;startSize=26;horizontalStack=0;resizeParent=1;resizeParentMax=0;resizeLast=0;collapsible=1;marginBottom=0;whiteSpace=wrap;html=1;" parent="1" vertex="1">
          <mxGeometry x="80" y="200" width="160" height="130" as="geometry" />
        </mxCell>
        <mxCell id="808y03WBdtZiZQ33SgHt-93" value="+ id: UUID&lt;div&gt;+ serverId: UUID&lt;br&gt;+ recommended: boolean&lt;br&gt;+ comment: String(nullable)&lt;br&gt;+ createdAt&lt;/div&gt;" style="text;strokeColor=none;fillColor=none;align=left;verticalAlign=top;spacingLeft=4;spacingRight=4;overflow=hidden;rotatable=0;points=[[0,0.5],[1,0.5]];portConstraint=eastwest;whiteSpace=wrap;html=1;" parent="808y03WBdtZiZQ33SgHt-92" vertex="1">
          <mxGeometry y="26" width="160" height="104" as="geometry" />
        </mxCell>
        <mxCell id="808y03WBdtZiZQ33SgHt-108" value="" style="endArrow=none;html=1;rounded=0;exitX=0.647;exitY=1.022;exitDx=0;exitDy=0;exitPerimeter=0;entryX=0.547;entryY=-0.004;entryDx=0;entryDy=0;entryPerimeter=0;" parent="1" source="808y03WBdtZiZQ33SgHt-91" target="808y03WBdtZiZQ33SgHt-86" edge="1">
          <mxGeometry relative="1" as="geometry">
            <mxPoint x="290" y="400" as="sourcePoint" />
            <mxPoint x="420" y="437" as="targetPoint" />
          </mxGeometry>
        </mxCell>
        <mxCell id="808y03WBdtZiZQ33SgHt-109" value="M" style="resizable=0;html=1;whiteSpace=wrap;align=left;verticalAlign=bottom;" parent="808y03WBdtZiZQ33SgHt-108" connectable="0" vertex="1">
          <mxGeometry x="-1" relative="1" as="geometry">
            <mxPoint y="19" as="offset" />
          </mxGeometry>
        </mxCell>
        <mxCell id="808y03WBdtZiZQ33SgHt-110" value="N" style="resizable=0;html=1;whiteSpace=wrap;align=right;verticalAlign=bottom;" parent="808y03WBdtZiZQ33SgHt-108" connectable="0" vertex="1">
          <mxGeometry x="1" relative="1" as="geometry" />
        </mxCell>
        <mxCell id="808y03WBdtZiZQ33SgHt-111" value="Game" style="swimlane;fontStyle=1;align=center;verticalAlign=top;childLayout=stackLayout;horizontal=1;startSize=26;horizontalStack=0;resizeParent=1;resizeParentMax=0;resizeLast=0;collapsible=1;marginBottom=0;whiteSpace=wrap;html=1;" parent="1" vertex="1">
          <mxGeometry x="170" y="830" width="200" height="80" as="geometry" />
        </mxCell>
        <mxCell id="808y03WBdtZiZQ33SgHt-112" value="+ id: UUID&lt;br&gt;+ name: String&lt;br&gt;+ iconUrl: String&lt;div&gt;&lt;br&gt;&lt;/div&gt;" style="text;strokeColor=none;fillColor=none;align=left;verticalAlign=top;spacingLeft=4;spacingRight=4;overflow=hidden;rotatable=0;points=[[0,0.5],[1,0.5]];portConstraint=eastwest;whiteSpace=wrap;html=1;" parent="808y03WBdtZiZQ33SgHt-111" vertex="1">
          <mxGeometry y="26" width="200" height="54" as="geometry" />
        </mxCell>
        <mxCell id="808y03WBdtZiZQ33SgHt-113" value="" style="endArrow=none;html=1;rounded=0;entryX=0.66;entryY=-0.037;entryDx=0;entryDy=0;entryPerimeter=0;exitX=0.453;exitY=1.004;exitDx=0;exitDy=0;exitPerimeter=0;" parent="1" source="808y03WBdtZiZQ33SgHt-87" target="808y03WBdtZiZQ33SgHt-111" edge="1">
          <mxGeometry relative="1" as="geometry">
            <mxPoint x="280" y="750" as="sourcePoint" />
            <mxPoint x="360" y="580" as="targetPoint" />
          </mxGeometry>
        </mxCell>
        <mxCell id="808y03WBdtZiZQ33SgHt-114" value="1" style="resizable=0;html=1;whiteSpace=wrap;align=right;verticalAlign=bottom;" parent="808y03WBdtZiZQ33SgHt-113" connectable="0" vertex="1">
          <mxGeometry x="1" relative="1" as="geometry" />
        </mxCell>
        <mxCell id="808y03WBdtZiZQ33SgHt-115" value="M" style="edgeLabel;html=1;align=center;verticalAlign=middle;resizable=0;points=[];" parent="808y03WBdtZiZQ33SgHt-113" vertex="1" connectable="0">
          <mxGeometry x="-0.9183" relative="1" as="geometry">
            <mxPoint as="offset" />
          </mxGeometry>
        </mxCell>
        <mxCell id="808y03WBdtZiZQ33SgHt-116" value="" style="endArrow=none;html=1;rounded=0;exitX=1.013;exitY=0.567;exitDx=0;exitDy=0;exitPerimeter=0;entryX=-0.005;entryY=0.196;entryDx=0;entryDy=0;entryPerimeter=0;" parent="1" source="808y03WBdtZiZQ33SgHt-80" target="808y03WBdtZiZQ33SgHt-87" edge="1">
          <mxGeometry relative="1" as="geometry">
            <mxPoint x="90" y="540" as="sourcePoint" />
            <mxPoint x="250" y="540" as="targetPoint" />
          </mxGeometry>
        </mxCell>
        <mxCell id="808y03WBdtZiZQ33SgHt-117" value="1" style="resizable=0;html=1;whiteSpace=wrap;align=right;verticalAlign=bottom;" parent="808y03WBdtZiZQ33SgHt-116" connectable="0" vertex="1">
          <mxGeometry x="1" relative="1" as="geometry" />
        </mxCell>
        <mxCell id="808y03WBdtZiZQ33SgHt-118" value="1" style="text;html=1;align=center;verticalAlign=middle;resizable=0;points=[];autosize=1;strokeColor=none;fillColor=none;" parent="1" vertex="1">
          <mxGeometry x="235" y="450" width="30" height="30" as="geometry" />
        </mxCell>
        <mxCell id="2" value="" style="endArrow=none;html=1;rounded=0;exitX=1;exitY=0.5;exitDx=0;exitDy=0;entryX=-0.019;entryY=0.725;entryDx=0;entryDy=0;entryPerimeter=0;" edge="1" parent="1" source="808y03WBdtZiZQ33SgHt-89" target="808y03WBdtZiZQ33SgHt-87">
          <mxGeometry relative="1" as="geometry">
            <mxPoint x="300" y="590" as="sourcePoint" />
            <mxPoint x="460" y="590" as="targetPoint" />
          </mxGeometry>
        </mxCell>
        <mxCell id="3" value="1" style="resizable=0;html=1;whiteSpace=wrap;align=right;verticalAlign=bottom;" connectable="0" vertex="1" parent="2">
          <mxGeometry x="1" relative="1" as="geometry" />
        </mxCell>
        <mxCell id="4" value="M" style="edgeLabel;html=1;align=center;verticalAlign=middle;resizable=0;points=[];" vertex="1" connectable="0" parent="2">
          <mxGeometry x="-0.7592" y="1" relative="1" as="geometry">
            <mxPoint y="-7" as="offset" />
          </mxGeometry>
        </mxCell>
        <mxCell id="8" value="" style="endArrow=none;html=1;rounded=0;exitX=1.016;exitY=0.574;exitDx=0;exitDy=0;exitPerimeter=0;entryX=0.365;entryY=-0.016;entryDx=0;entryDy=0;entryPerimeter=0;" edge="1" parent="1" source="808y03WBdtZiZQ33SgHt-93" target="808y03WBdtZiZQ33SgHt-86">
          <mxGeometry relative="1" as="geometry">
            <mxPoint x="330" y="410" as="sourcePoint" />
            <mxPoint x="490" y="410" as="targetPoint" />
          </mxGeometry>
        </mxCell>
        <mxCell id="9" value="1" style="resizable=0;html=1;whiteSpace=wrap;align=right;verticalAlign=bottom;" connectable="0" vertex="1" parent="8">
          <mxGeometry x="1" relative="1" as="geometry">
            <mxPoint x="11" as="offset" />
          </mxGeometry>
        </mxCell>
        <mxCell id="10" value="M" style="edgeLabel;html=1;align=center;verticalAlign=middle;resizable=0;points=[];" vertex="1" connectable="0" parent="8">
          <mxGeometry x="-0.9501" relative="1" as="geometry">
            <mxPoint x="4" y="-10" as="offset" />
          </mxGeometry>
        </mxCell>
      </root>
    </mxGraphModel>
  </diagram>
</mxfile>
